<svg id="Capa_1" enable-background="new 0 0 512 512" height="512" viewBox="0 0 512 512" width="512" xmlns="http://www.w3.org/2000/svg"><g><path d="m181.45 396.817h-8.567c-4.418 0-8-3.582-8-8v-8.567c0-13.724-11.126-24.85-24.85-24.85h-24.85c-13.724 0-24.85 11.126-24.85 24.85v8.567c0 4.418-3.582 8-8 8h-.283c-13.724 0-24.85 11.126-24.85 24.85v21.567h149.1v-21.567c0-13.725-11.126-24.85-24.85-24.85z" fill="#b3e59f"/><path d="m181.45 396.817h-8.567c-4.418 0-8-3.582-8-8v-8.567c0-13.724-11.126-24.85-24.85-24.85h-23c13.724 0 24.85 11.126 24.85 24.85v8.567c0 4.418 3.582 8 8 8h8.567c13.724 0 24.85 11.126 24.85 24.85v21.567h23v-21.567c0-13.725-11.126-24.85-24.85-24.85z" fill="#8ad689"/><g><path d="m98.9 504.5h-33.7c-4.418 0-8-3.582-8-8v-30.133h49.7v30.133c0 4.418-3.582 8-8 8z" fill="#eac89f"/><path d="m446.8 504.5h-33.7c-4.418 0-8-3.582-8-8v-30.133h49.7v30.133c0 4.418-3.582 8-8 8z" fill="#eac89f"/><path d="m479.933 471.367h-447.866c-4.418 0-8-3.582-8-8v-17.133c0-4.418 3.582-8 8-8h447.867c4.418 0 8 3.582 8 8v17.133c-.001 4.418-3.582 8-8.001 8z" fill="#f4dbb3"/><path d="m479.933 438.233h-23c4.418 0 8 3.582 8 8v17.133c0 4.418-3.582 8-8 8h23c4.418 0 8-3.582 8-8v-17.133c0-4.418-3.581-8-8-8z" fill="#eac89f"/></g><path d="m454.8 15.5v17.133c0 4.418-3.582 8-8 8h-365.033c-4.418 0-8-3.582-8-8v-17.133c0-4.418 3.582-8 8-8h365.033c4.418 0 8 3.582 8 8z" fill="#f4dbb3"/><g><path d="m305.7 272.567h66.267c45.748 0 82.833 37.086 82.833 82.833s-37.086 82.833-82.833 82.833h-66.267z" fill="#6f6571"/><path d="m371.967 272.567h-23c45.748 0 82.833 37.086 82.833 82.833s-37.086 82.833-82.833 82.833h23c45.748 0 82.833-37.086 82.833-82.833s-37.086-82.833-82.833-82.833z" fill="#5e5161"/><circle cx="305.7" cy="355.4" fill="#e6dedd" r="82.833"/><circle cx="305.7" cy="355.4" fill="#faf8fa" r="82.833"/><circle cx="305.7" cy="355.4" fill="#e55964" r="41.417"/><path d="m305.7 272.567c-3.904 0-7.74.29-11.5.813 40.301 5.601 71.333 40.177 71.333 82.021 0 41.843-31.032 76.42-71.333 82.021 3.76.522 7.596.813 11.5.813 45.747 0 82.833-37.086 82.833-82.833s-37.085-82.835-82.833-82.835z" fill="#eceaec"/><path d="m305.7 313.983c-3.992 0-7.848.576-11.5 1.63 17.277 4.986 29.917 20.905 29.917 39.786 0 18.882-12.64 34.801-29.917 39.787 3.652 1.054 7.508 1.63 11.5 1.63 22.874 0 41.417-18.543 41.417-41.417 0-22.873-18.543-41.416-41.417-41.416z" fill="#db404f"/></g><g><path d="m173.167 40.633h66.267c35.428 0 65.661 22.241 77.498 53.522l5.22 33.723c-2.293 43.697-38.45 78.422-82.718 78.422h-66.267z" fill="#443737"/><path d="m173.167 40.633h66.267c35.428 0 65.661 22.241 77.498 53.522l5.22 33.723c-2.293 43.697-38.45 78.422-82.718 78.422h-66.267z" fill="#6f6571"/><path d="m316.931 94.155c-11.837-31.281-42.07-53.522-77.498-53.522h-22.932c35.428 0 65.66 22.241 77.498 53.522l5.22 33.723c-2.293 43.697-38.45 78.422-82.718 78.422h22.932c44.268 0 80.425-34.725 82.718-78.422z" fill="#5e5161"/><path d="m214.282 118.443c.199 1.647.302 3.323.302 5.024 0 22.874-18.543 41.417-41.417 41.417s-41.417-18.543-41.417-41.417c0-4.206.627-8.266 1.793-12.091v-7h80.739z" fill="#58883c"/><path d="m105.511 75.663c15.002-21.194 39.713-35.03 67.656-35.03 33.111 0 61.684 19.427 74.943 47.506l7.878 33.948c.008.459.011.919.011 1.38 0 45.748-37.086 82.833-82.833 82.833s-82.833-37.086-82.833-82.833c0-5.382.513-10.644 1.493-15.74z" fill="#faf8fa"/><path d="m214.282 118.443c.199 1.647.302 3.323.302 5.024 0 22.874-18.543 41.417-41.417 41.417s-41.417-18.543-41.417-41.417c0-4.206.627-8.266 1.793-12.091v-7h80.739z" fill="#e55964"/><path d="m214.282 118.443v-14.067h-23v14.067c.199 1.647.302 3.323.302 5.024 0 18.882-12.64 34.801-29.917 39.786 3.653 1.054 7.508 1.63 11.5 1.63 22.874 0 41.417-18.543 41.417-41.417-.001-1.7-.103-3.376-.302-5.023z" fill="#db404f"/><path d="m255.989 122.087-7.879-33.948c-13.259-28.078-41.833-47.505-74.943-47.505-3.903 0-7.74.279-11.5.802 28.132 3.908 51.747 21.936 63.443 46.704l7.879 33.948c.007.459.011.919.011 1.38 0 41.843-31.032 76.42-71.333 82.021 3.76.522 7.596.813 11.5.813 45.748 0 82.833-37.086 82.833-82.833 0-.463-.004-.923-.011-1.382z" fill="#eceaec"/></g><path d="m446.8 7.5h-23c4.418 0 8 3.582 8 8v17.133c0 4.418-3.582 8-8 8h23c4.418 0 8-3.582 8-8v-17.133c0-4.418-3.582-8-8-8z" fill="#eac89f"/><path d="m81.3 106.806c-4.557-.399-7.929-4.416-7.53-8.974l1.444-16.504c.399-4.557 4.416-7.929 8.974-7.53l363.08 31.765c4.557.399 7.929 4.416 7.53 8.974l-1.444 16.504c-.399 4.557-4.416 7.929-8.974 7.53z" fill="#f4dbb3"/><path d="m447.267 105.564-21.79-1.906c3.911.95 6.653 4.628 6.292 8.76l-1.444 16.504c-.399 4.557-4.416 7.928-8.974 7.53l23.029 2.12c4.557.399 8.575-2.973 8.974-7.53l1.444-16.504c.398-4.558-2.974-8.575-7.531-8.974z" fill="#eac89f"/></g><g><path d="m479.934 430.733h-58.177c8.42-5.583 15.853-12.539 21.98-20.546.342-.37.647-.774.91-1.207 11.088-15 17.653-33.537 17.653-53.58 0-15.534-4.01-30.855-11.597-44.31-2.034-3.608-6.61-4.883-10.217-2.85-3.608 2.035-4.884 6.609-2.85 10.217 6.321 11.21 9.663 23.984 9.663 36.942 0 15.625-4.784 30.152-12.961 42.199h-29.238c-4.143 0-7.5 3.357-7.5 7.5s3.357 7.5 7.5 7.5h15.809c-13.176 11.29-30.27 18.134-48.941 18.134h-16.478c24.412-16.189 40.543-43.911 40.543-75.333 0-31.423-16.131-59.145-40.543-75.334h16.477c17.22 0 34.054 5.959 47.401 16.779 1.39 1.126 3.059 1.674 4.718 1.674 2.184 0 4.349-.949 5.831-2.777 2.608-3.218 2.114-7.94-1.103-10.549-16.011-12.979-36.199-20.127-56.847-20.127h-66.267c-49.81 0-90.333 40.523-90.333 90.334 0 31.422 16.131 59.144 40.543 75.333h-42.11v-9.066c0-17.838-14.512-32.351-32.35-32.351h-9.067v-9.066c0-17.838-14.512-32.35-32.35-32.35h-24.85c-17.838 0-32.351 14.512-32.351 32.35v9.066h-.782c-17.838 0-32.35 14.513-32.35 32.351v9.066h-17.634c-8.547 0-15.5 6.953-15.5 15.5v17.134c0 8.547 6.953 15.5 15.5 15.5h17.634v17.634c0 8.547 6.953 15.5 15.5 15.5h33.7c8.547 0 15.5-6.953 15.5-15.5v-17.633h50.482c4.143 0 7.5-3.357 7.5-7.5s-3.357-7.5-7.5-7.5h-132.816c-.275 0-.5-.225-.5-.5v-17.134c0-.275.225-.5.5-.5h447.867c.275 0 .5.225.5.5v17.134c0 .275-.225.5-.5.5h-285.05c-4.143 0-7.5 3.357-7.5 7.5s3.357 7.5 7.5 7.5h202.717v17.633c0 8.547 6.953 15.5 15.5 15.5h33.7c8.547 0 15.5-6.953 15.5-15.5v-17.633h17.634c8.547 0 15.5-6.953 15.5-15.5v-17.134c0-8.547-6.954-15.5-15.5-15.5zm-380.534 48.134v17.633c0 .275-.225.5-.5.5h-33.7c-.275 0-.5-.225-.5-.5v-17.633zm-34.7-57.2c0-9.567 7.783-17.351 17.35-17.351h24.85c4.143 0 7.5-3.357 7.5-7.5s-3.357-7.5-7.5-7.5h-9.067v-9.066c0-9.566 7.783-17.35 17.351-17.35h24.85c9.566 0 17.35 7.783 17.35 17.35v9.066h-17.35c-4.143 0-7.5 3.357-7.5 7.5s3.357 7.5 7.5 7.5h41.417c9.566 0 17.35 7.783 17.35 17.351v9.066h-134.101zm165.667-66.267c0-41.539 33.794-75.334 75.333-75.334s75.333 33.795 75.333 75.334-33.794 75.333-75.333 75.333-75.333-33.793-75.333-75.333zm216.933 141.1c0 .275-.225.5-.5.5h-33.7c-.275 0-.5-.225-.5-.5v-17.633h34.7z"/><path d="m354.617 355.4c0-26.973-21.944-48.917-48.917-48.917-19.843 0-36.952 11.883-44.617 28.901-.118.228-.224.463-.319.704-2.558 5.928-3.981 12.456-3.981 19.312 0 26.973 21.944 48.916 48.917 48.916 19.862 0 36.984-11.905 44.639-28.949.106-.208.204-.422.29-.641 2.562-5.931 3.988-12.464 3.988-19.326zm-82.834 0c0-3.141.438-6.179 1.241-9.067h16.109c4.143 0 7.5-3.357 7.5-7.5s-3.357-7.5-7.5-7.5h-7.304c6.134-6.084 14.57-9.85 23.872-9.85 18.702 0 33.917 15.215 33.917 33.917 0 3.14-.438 6.178-1.24 9.066h-16.11c-4.143 0-7.5 3.357-7.5 7.5s3.357 7.5 7.5 7.5h7.305c-6.133 6.084-14.57 9.85-23.872 9.85-18.703 0-33.918-15.214-33.918-33.916z"/><path d="m102.01 67.829-17.169-1.502c-8.677-.74-16.34 5.679-17.099 14.347l-1.444 16.505c-.367 4.2.923 8.291 3.633 11.521 2.71 3.229 6.516 5.211 10.716 5.578l2.634.23c-.293 2.974-.448 5.967-.448 8.959 0 49.81 40.523 90.333 90.334 90.333h66.267c45.452 0 83.334-33.598 89.451-77.804l57.077 4.994 57.764 5.054c.466.041.928.061 1.386.061 8.086-.001 14.995-6.204 15.714-14.409l1.443-16.503c.758-8.67-5.679-16.341-14.348-17.099l-57.758-5.053c-.001 0-.002 0-.003 0s-.003 0-.003 0l-68.034-5.952c-7.112-16.122-18.741-29.534-33.03-38.954h157.707c8.547 0 15.5-6.953 15.5-15.5v-17.135c0-8.547-6.953-15.5-15.5-15.5h-365.033c-8.547 0-15.5 6.953-15.5 15.5v17.133c0 8.547 6.953 15.5 15.5 15.5h41.605c-8.056 5.32-15.291 11.944-21.362 19.696zm-20.588 31.229c-.139-.165-.199-.357-.181-.571l1.444-16.505c.035-.406.378-.714.779-.714.022 0 .046.001.069.003l297.845 26.058-1.581 18.063-123.113-10.771c-.04-.004-.079-.007-.119-.01l-122.288-10.699c-.031-.003-.061-.005-.092-.008l-52.234-4.57c-.213-.019-.391-.111-.529-.276zm124.42 33.475h-16.109c-4.143 0-7.5 3.357-7.5 7.5s3.357 7.5 7.5 7.5h7.304c-6.133 6.084-14.57 9.85-23.871 9.85-18.702 0-33.917-15.215-33.917-33.916 0-1.357.101-2.703.26-4.04l67.52 5.907c-.135 2.481-.544 4.888-1.187 7.199zm-108.009-9.066c0-2.557.138-5.113.394-7.651l26.315 2.302c-.193 1.771-.291 3.556-.291 5.349 0 26.973 21.944 48.916 48.917 48.916 19.851 0 36.964-11.892 44.625-28.92.113-.221.216-.447.308-.68 2.161-5.007 3.502-10.443 3.869-16.142l26.311 2.302c-2.818 38.99-35.417 69.856-75.112 69.856-41.541.001-75.336-33.793-75.336-75.332zm204.022 42.2h-29.289c-4.143 0-7.5 3.357-7.5 7.5s3.357 7.5 7.5 7.5h15.913c-13.205 11.32-30.358 18.133-49.046 18.133h-16.477c22.639-15.013 38.154-39.943 40.289-68.547l50.69 4.435c-1.692 11.381-5.926 21.891-12.08 30.979zm145.47-51.782-1.443 16.502c-.037.431-.406.75-.85.713l-50.29-4.4 1.581-18.063 50.291 4.4c.43.036.749.417.711.848zm-142.805-28.338-51.604-4.515c-7.193-13.48-17.623-24.708-30.048-32.899h16.566c26.926 0 51.738 14.633 65.086 37.414zm142.78-70.047v17.133c0 .275-.225.5-.5.5h-50.767v-18.133h50.767c.275 0 .5.225.5.5zm-365.533 17.633c-.275 0-.5-.225-.5-.5v-17.133c0-.275.225-.5.5-.5h299.267v18.133h-141.6-66.267zm152.487 46.266-113.594-9.938c13.949-13.534 32.768-21.328 52.507-21.328 24.332 0 47.071 11.933 61.087 31.266z"/></g></svg>