<svg id="Capa_1" enable-background="new 0 0 512 512" height="512" viewBox="0 0 512 512" width="512" xmlns="http://www.w3.org/2000/svg"><g><g><g clip-rule="evenodd" fill-rule="evenodd"><path d="m110.503 246.751c18.222 0 28.533-15.752 48.499-15.752s30.277 15.752 48.499 15.752 28.533-15.752 48.499-15.752 30.277 15.752 48.499 15.752 28.533-15.752 48.499-15.752 30.277 15.752 48.499 15.752 28.533-15.752 48.499-15.752c8.249 0 15-6.75 15-15s-6.75-15-15-15h-387.992c-8.25 0-15 6.75-15 15s6.751 15 15 15c19.966 0 30.277 15.752 48.499 15.752z" fill="#8cc63f"/><path d="m62.004 201h387.991c8.249 0 15-6.75 15-15v-37.523c0-77.537-63.439-140.977-140.976-140.977h-136.038c-77.537 0-140.976 63.439-140.976 140.976v37.524c0 8.25 6.75 15 14.999 15z" fill="#fcc062"/><path d="m110.503 246.751c18.222 0 28.533-15.752 48.499-15.752s30.277 15.752 48.499 15.752 28.533-15.752 48.499-15.752 30.277 15.752 48.499 15.752 28.533-15.752 48.499-15.752 30.277 15.752 48.499 15.752 28.533-15.752 48.499-15.752c8.249 0 15-6.75 15-15s-6.75-15-15-15h-387.992c-8.25 0-15 6.75-15 15s6.751 15 15 15c19.966 0 30.277 15.752 48.499 15.752zm339.465-30.751c-8.897.005-16.83 2.235-24.817 6.001-6.799 3.206-16.119 9.751-23.654 9.751s-16.856-6.545-23.655-9.751c-16.856-7.949-32.833-7.949-49.689 0-6.799 3.206-16.119 9.751-23.655 9.751-7.535 0-16.856-6.545-23.655-9.751-16.856-7.949-32.833-7.949-49.689 0-6.799 3.206-16.119 9.751-23.655 9.751s-16.856-6.545-23.654-9.751c-16.856-7.949-32.833-7.949-49.689 0-6.799 3.206-16.119 9.751-23.655 9.751s-16.856-6.545-23.655-9.751c-7.987-3.766-15.921-5.996-24.817-6.001z" fill="#39b54a"/><path d="m62.004 300.999h387.991c19.25 0 35-15.75 35-35s-15.75-35-35-35c-19.966 0-30.277 15.752-48.499 15.752s-28.533-15.752-48.499-15.752-30.277 15.752-48.499 15.752-28.532-15.752-48.498-15.752-30.277 15.752-48.499 15.752-28.533-15.752-48.499-15.752-30.277 15.752-48.499 15.752-28.533-15.752-48.499-15.752c-19.249 0-35 15.75-35 35 .001 19.251 15.75 35 35 35z" fill="#c69c6d"/><path d="m484.331 259.227c-3.177-16.038-17.401-28.227-34.335-28.227-19.966 0-30.277 15.752-48.499 15.752s-28.533-15.752-48.499-15.752-30.277 15.752-48.499 15.752-28.533-15.753-48.499-15.753-30.277 15.752-48.499 15.752-28.533-15.752-48.499-15.752-30.277 15.752-48.499 15.752-28.533-15.752-48.499-15.752c-18.705 0-35 15.141-35 35 0 19.25 15.749 35 35 35h22.5c-27.762 0-44.122-30.809-29.547-53.701 16.403-6.258 34.353 14.453 55.546 14.453 20.621 0 34.138-15.752 48.499-15.752s27.878 15.752 48.499 15.752 34.138-15.752 48.499-15.752c14.362 0 27.878 15.752 48.499 15.752s34.137-15.752 48.499-15.752 27.878 15.752 48.499 15.752c20.275 0 33.235-15.752 48.499-15.752 11.395 0 21.506 8.778 34.335 13.228z" fill="#957552"/><path d="m110.503 346.751c18.222 0 28.533-15.752 48.499-15.752s30.277 15.752 48.499 15.752 28.533-15.752 48.499-15.752 30.277 15.752 48.499 15.752 28.533-15.752 48.499-15.752 30.277 15.752 48.499 15.752 28.533-15.752 48.499-15.752c8.249 0 15-6.75 15-15s-6.75-15-15-15h-387.992c-8.25 0-15 6.75-15 15s6.751 15 15 15c19.966 0 30.277 15.752 48.499 15.752z" fill="#8cc63f"/><path d="m449.996 400.999c19.25 0 35-15.75 35-35s-15.75-35-35-35c-19.966 0-30.277 15.752-48.499 15.752s-28.533-15.752-48.499-15.752-30.277 15.752-48.499 15.752-28.533-15.752-48.499-15.752-30.277 15.752-48.499 15.752-28.533-15.752-48.499-15.752-30.277 15.752-48.499 15.752-28.533-15.752-48.499-15.752c-19.249 0-35 15.75-35 35s15.749 35 35 35z" fill="#c69c6d"/><path d="m199.487 452.915 107.482-51.916h-214.965z" fill="#ffe477"/><path d="m199.487 452.915 107.483-51.916h-214.966zm0-16.658-41.941-20.258h83.882z" fill="#ffd442"/><path d="m92.004 504.5h327.992c24.75 0 45-20.25 45-45v-43.501c0-8.25-6.751-15-15-15h-143.027l-107.483 51.916-107.482-51.916h-30c-8.249 0-15 6.751-15 15v43.501c.001 24.749 20.25 45 45 45z" fill="#fcc062"/><path d="m62.004 201h22.5c-8.249 0-15-6.75-15-15v-37.523c0-77.538 63.439-140.977 140.977-140.977h-22.5c-77.537 0-140.976 63.439-140.976 140.976v37.524c0 8.25 6.75 15 14.999 15z" fill="#fbb03b"/><path d="m110.503 346.751c18.222 0 28.533-15.752 48.499-15.752s30.277 15.752 48.499 15.752 28.533-15.752 48.499-15.752 30.277 15.752 48.499 15.752 28.533-15.752 48.499-15.752 30.277 15.752 48.499 15.752 28.533-15.752 48.499-15.752c8.249 0 15-6.75 15-15s-6.75-15-15-15h-387.992c-8.25 0-15 6.75-15 15s6.751 15 15 15c19.966 0 30.277 15.752 48.499 15.752zm339.465-30.751c-8.897.005-16.83 2.235-24.817 6.001-6.799 3.206-16.119 9.751-23.654 9.751s-16.856-6.545-23.655-9.751c-16.856-7.949-32.833-7.949-49.689 0-6.799 3.206-16.119 9.751-23.655 9.751-7.535 0-16.856-6.545-23.655-9.751-16.856-7.949-32.833-7.949-49.689 0-6.799 3.206-16.119 9.751-23.655 9.751s-16.856-6.545-23.654-9.751c-16.856-7.949-32.833-7.949-49.689 0-6.799 3.206-16.119 9.751-23.655 9.751s-16.856-6.545-23.655-9.751c-7.987-3.766-15.921-5.996-24.817-6.001z" fill="#39b54a"/><path d="m484.331 359.227c-3.177-16.038-17.401-28.227-34.335-28.227-19.966 0-30.277 15.752-48.499 15.752s-28.533-15.752-48.499-15.752-30.277 15.752-48.499 15.752-28.533-15.753-48.499-15.753-30.277 15.752-48.499 15.752-28.533-15.752-48.499-15.752-30.277 15.752-48.499 15.752-28.533-15.752-48.499-15.752c-18.705 0-35 15.141-35 35 0 19.25 15.749 35 35 35h22.5c-27.762 0-44.122-30.809-29.547-53.701 16.403-6.258 34.353 14.453 55.546 14.453 20.621 0 34.138-15.752 48.499-15.752s27.878 15.752 48.499 15.752 34.138-15.752 48.499-15.752c14.362 0 27.878 15.752 48.499 15.752s34.137-15.752 48.499-15.752 27.878 15.752 48.499 15.752c20.275 0 33.235-15.752 48.499-15.752 11.395 0 21.506 8.777 34.335 13.228z" fill="#957552"/><path d="m92.004 504.5h22.5c-24.75 0-45-20.251-45-45v-43.501c0-2.963.871-5.732 2.369-8.065l127.613 61.639 141.97-68.574h-34.487l-107.483 51.916-107.482-51.916c-10 0-20 0-30 0-8.249 0-15 6.751-15 15v43.501c.001 24.749 20.25 45 45 45z" fill="#fbb03b"/></g><g><path d="m137.004 482h-15v-15h15zm-30 0h-15c-12.406 0-22.5-10.093-22.5-22.5v-15h15v15c0 4.065 3.435 7.5 7.5 7.5h15zm335.492-43.501h-67.5v-15h67.5zm-82.5 0h-15v-15h15z" fill="#fff"/></g><g><path d="m442.495 148.477h-15c0-57.058-46.419-103.477-103.475-103.477v-15c31.495 0 61.205 12.365 83.657 34.818 22.453 22.453 34.818 52.163 34.818 83.659zm-133.475-103.477h-15.001v-15h15.001z" fill="#fff"/></g><g><path d="m439.995 258.5h15v15h-15z" fill="#fff"/></g><g><path d="m439.995 358.5h15v15h-15z" fill="#fff"/></g></g><g><path d="m54.504 459.5v-36.001h-15v36.001c0 28.949 23.551 52.5 52.5 52.5h267.992v-15h-267.992c-20.677 0-37.5-16.822-37.5-37.5z"/><path d="m457.495 459.5c0 20.678-16.822 37.5-37.499 37.5h-45v15h45c28.948 0 52.499-23.551 52.499-52.5v-36.001h-15z"/><path d="m469.009 328.007c2.204-3.478 3.486-7.595 3.486-12.008s-1.282-8.53-3.486-12.007c13.912-6.991 23.486-21.39 23.486-37.992s-9.574-31.002-23.486-37.993c2.204-3.478 3.486-7.594 3.486-12.008 0-12.407-10.093-22.5-22.499-22.5h-186.496v15h186.496c4.135 0 7.499 3.364 7.499 7.5s-3.364 7.5-7.499 7.5c-12.095 0-21.05 4.801-28.951 9.036-6.723 3.604-12.528 6.716-19.548 6.716s-12.826-3.112-19.549-6.716c-7.901-4.235-16.855-9.036-28.95-9.036s-21.05 4.801-28.951 9.036c-6.723 3.604-12.528 6.716-19.548 6.716s-12.826-3.112-19.549-6.716c-7.901-4.235-16.855-9.036-28.95-9.036-12.094 0-21.049 4.8-28.95 9.036-6.723 3.604-12.529 6.716-19.549 6.716s-12.826-3.112-19.548-6.716c-7.901-4.235-16.856-9.036-28.95-9.036-12.095 0-21.049 4.8-28.951 9.036-6.723 3.604-12.529 6.716-19.549 6.716s-12.826-3.112-19.549-6.716c-7.9-4.235-16.855-9.036-28.95-9.036-4.136 0-7.5-3.364-7.5-7.5s3.364-7.5 7.5-7.5h186.496v-15h-186.496c-12.407 0-22.5 10.093-22.5 22.5 0 4.413 1.282 8.53 3.486 12.008-13.912 6.991-23.486 21.39-23.486 37.992s9.574 31.002 23.486 37.993c-2.204 3.478-3.486 7.595-3.486 12.008s1.282 8.53 3.486 12.008c-13.912 6.991-23.486 21.39-23.486 37.992 0 23.435 19.065 42.5 42.5 42.5h129.982v-15h-129.982c-15.163 0-27.5-12.336-27.5-27.5 0-15.163 12.336-27.5 27.5-27.5 8.328 0 14.902 3.524 21.863 7.255 7.429 3.982 15.849 8.496 26.635 8.496 10.787 0 19.207-4.514 26.636-8.496 6.961-3.731 13.536-7.256 21.864-7.256s14.902 3.524 21.863 7.255c7.429 3.982 15.849 8.496 26.635 8.496s19.207-4.514 26.635-8.496c6.961-3.731 13.536-7.256 21.864-7.256 8.327 0 14.902 3.524 21.863 7.255 7.429 3.982 15.849 8.496 26.636 8.496 10.786 0 19.206-4.514 26.635-8.496 6.961-3.731 13.536-7.256 21.864-7.256 8.327 0 14.902 3.524 21.863 7.255 7.429 3.982 15.849 8.496 26.636 8.496 10.786 0 19.206-4.514 26.635-8.496 6.961-3.731 13.536-7.256 21.864-7.256 15.163 0 27.499 12.336 27.499 27.5 0 15.163-12.336 27.5-27.499 27.5h-243.01v15h243.01c23.434 0 42.499-19.065 42.499-42.5.001-16.598-9.573-30.998-23.485-37.989zm-47.964 4.528c-6.723 3.604-12.528 6.716-19.548 6.716s-12.826-3.112-19.549-6.716c-7.901-4.235-16.855-9.035-28.95-9.035s-21.05 4.8-28.951 9.036c-6.723 3.604-12.528 6.716-19.548 6.716s-12.826-3.112-19.549-6.716c-7.901-4.235-16.856-9.035-28.95-9.035s-21.049 4.8-28.95 9.035c-6.723 3.604-12.529 6.716-19.549 6.716s-12.826-3.112-19.549-6.716c-7.9-4.235-16.855-9.035-28.95-9.035s-21.049 4.8-28.95 9.035c-6.723 3.604-12.529 6.716-19.549 6.716s-12.826-3.112-19.549-6.716c-7.9-4.235-16.855-9.035-28.95-9.035-4.136 0-7.5-3.364-7.5-7.5s3.364-7.5 7.5-7.5h186.496v-15h-186.496c-15.163 0-27.5-12.336-27.5-27.5 0-15.163 12.336-27.5 27.5-27.5 8.328 0 14.902 3.524 21.863 7.256 7.429 3.982 15.849 8.496 26.635 8.496s19.207-4.514 26.636-8.496c6.961-3.731 13.536-7.256 21.864-7.256s14.902 3.524 21.863 7.256c7.429 3.982 15.849 8.496 26.635 8.496s19.207-4.514 26.636-8.496c6.961-3.731 13.536-7.256 21.863-7.256s14.902 3.524 21.863 7.256c7.429 3.982 15.849 8.496 26.636 8.496 10.786 0 19.206-4.514 26.635-8.496 6.961-3.731 13.536-7.256 21.864-7.256 8.327 0 14.902 3.524 21.863 7.256 7.429 3.982 15.849 8.496 26.636 8.496 10.786 0 19.206-4.514 26.635-8.496 6.961-3.731 13.536-7.256 21.864-7.256 15.163 0 27.499 12.336 27.499 27.5 0 15.163-12.336 27.5-27.499 27.5h-186.495v15h186.496c4.135 0 7.499 3.364 7.499 7.5s-3.364 7.5-7.499 7.5c-12.095-.001-21.05 4.799-28.951 9.034z"/><path d="m187.981 15h136.039c73.599 0 133.476 59.877 133.476 133.477v30.023h15v-30.023c0-39.503-15.487-76.747-43.608-104.868-28.122-28.122-65.365-43.609-104.868-43.609h-136.039c-41.529 0-81.508 17.735-109.686 48.658l11.087 10.103c25.343-27.811 61.28-43.761 98.599-43.761z"/><path d="m54.504 148.477c0-28.464 8.949-55.686 25.88-78.722l-12.086-8.883c-18.837 25.629-28.794 55.923-28.794 87.605v30.023h15z"/><path d="m241.598 424.246-42.111 20.34-42.112-20.34-6.523 13.506 48.635 23.492 48.635-23.492z"/><path d="m308.499 126.75h15.001v15h-15.001z"/><path d="m368.499 126.75h15v15h-15z"/><path d="m278.5 81.75h15v15h-15z"/><path d="m338.499 81.75h15v15h-15z"/><path d="m158.501 81.75h15v15h-15z"/><path d="m128.5 126.75h15v15h-15z"/><path d="m248.5 126.75h15v15h-15z"/><path d="m218.5 81.75h15v15h-15z"/><path d="m188.5 126.75h15v15h-15z"/></g></g></svg>