<svg id="Capa_1" enable-background="new 0 0 512 512" height="512" viewBox="0 0 512 512" width="512" xmlns="http://www.w3.org/2000/svg"><g><g><path d="m148.646 112.914c-36.283 0-65.697 29.414-65.697 65.697 0 31.006 21.482 56.983 50.373 63.885v-30.204c-12.789-5.825-21.681-18.711-21.681-33.681 0-20.437 16.567-37.005 37.005-37.005 15.516 0 28.794 9.554 34.292 23.097h29.916c-6.383-29.601-32.698-51.789-64.208-51.789z" fill="#ffea9a"/></g><g><path d="m142.445 243.895c9.866-33.159 45.703-5.044 45.703-5.044s-51.169-58.342-36.339-80.768c14.831-22.427 46.837-2.008 46.837-2.008s-16.935-77.701 27.423-82.596 44.774 74.628 44.774 74.628 26.783-26.906 46.147-8.253-17.852 86.749-17.852 86.749 28.844-35.253 45.703-5.044c16.859 30.21-45.691 87.713-45.691 87.713l-42.977 33.998-50.011-23.736c.001 0-73.583-42.479-63.717-75.639z" fill="#15a977"/></g><g><path d="m344.842 221.559c-16.859-30.209-45.703 5.044-45.703 5.044s37.216-68.096 17.852-86.749-46.147 8.253-46.147 8.253-.416-79.524-44.774-74.628c-13.928 1.537-21.811 10.254-26.075 21.488.994-.199 2.012-.371 3.075-.488 25.87-2.855 36.794 23.004 41.406 45.056 2.492 11.916 14.637 18.849 26.405 15.733 7.545-1.997 15.849-1.409 23.111 5.586 10.677 10.285 4.152 35.603-3.851 56.248-2.797 7.215 3.301 14.946 10.913 13.551 7.219-1.322 14.768 1.117 20.789 11.906 11.883 21.292-15.681 56.141-32.99 74.86l10.299-8.147c-.001 0 62.549-57.503 45.69-87.713z" fill="#13a071"/></g><g><path d="m417.996 134.069c-36.283 0-65.697 29.414-65.697 65.697s29.413 65.697 65.697 65.697 65.697-29.413 65.697-65.697c-.001-36.283-29.414-65.697-65.697-65.697zm0 102.702c-20.437 0-37.005-16.568-37.005-37.005s16.568-37.005 37.005-37.005 37.004 16.568 37.004 37.005-16.567 37.005-37.004 37.005z" fill="#ffea9a"/></g><g><path d="m325.471 102.628c-33.172 28.603-39.983 78.242-14.376 114.948s74.545 47.453 112.842 26.196z" fill="#f26e91"/></g><g><path d="m325.472 102.628c-6.582 5.676-12.108 12.189-16.567 19.255l85.033 121.889c-8.542 4.741-17.613 7.879-26.837 9.503 18.973 3.327 39.051.368 56.837-9.503z" fill="#e05c7e"/></g><g><path d="m225.283 245.496c-10.263-19.029-25.676-40.296-42.617-38.389-30.185 3.397-11.429 38.72-11.429 38.72s-42.508-53.25-64.185-43.901-8.981 40.169-8.981 40.169-64.535-26.656-75.628 10.924 57.573 50.242 57.573 50.242-27.398 15.986-14.272 35.607c13.126 19.622 77.736-2.009 77.736-2.009s-34.931 19.476-11.429 38.72 82.876-25.921 82.876-25.921l38.625-31.421-15.371-44.359c0-.001-4.876-13.508-12.898-28.382" fill="#90de97"/></g><g><path d="m332.804 201.998c30.185 3.397 11.429 38.72 11.429 38.72s42.508-53.25 64.185-43.901 8.981 40.169 8.981 40.169 64.535-26.656 75.628 10.924-57.573 50.242-57.573 50.242 27.398 15.986 14.272 35.608c-13.126 19.621-77.736-2.009-77.736-2.009s34.931 19.476 11.429 38.72-82.876-25.921-82.876-25.921l-38.625-28.421 15.371-47.359c-.001-.001 25.33-70.169 55.515-66.772z" fill="#b5ebb9"/></g><g><path d="m493.027 247.91c-6.336-21.465-30.104-21.971-49.325-18.46 8.908 2.442 16.216 7.927 19.325 18.46 11.093 37.58-57.573 50.242-57.573 50.242s27.398 15.986 14.272 35.608c-2.276 3.402-6.102 5.562-10.868 6.812 16.952 2.519 34.663 2.464 40.868-6.812 13.126-19.622-14.272-35.608-14.272-35.608s68.666-12.662 57.573-50.242z" fill="#90de97"/></g><g><path d="m150.827 280.067c18.219 31.582 73.041 52.283 110.224 35.642 40.85-18.282 60.57-64.343 46.859-105.943z" fill="#f26e91"/></g><g><path d="m307.91 209.766-26.972 12.071c6.697 38.113-12.957 77.344-49.887 93.872-4.74 2.121-9.768 3.629-14.969 4.591 15.584 2.556 31.443 1.462 44.969-4.591 40.85-18.282 60.569-64.343 46.859-105.943z" fill="#e05c7e"/></g><g><path d="m256 318.491-200.791 19.163 67.312 65.602h133.479 133.478l67.313-65.602z" fill="#fdfcfc"/></g><g><path d="m381.102 438.737h-250.204c-10.015 0-18.134-7.119-18.134-17.134v-.213c0-10.015 8.119-18.134 18.134-18.134h250.204c10.015 0 18.134 8.119 18.134 18.134v.213c0 10.015-8.119 17.134-18.134 17.134z" fill="#7191f0"/></g><g><path d="m484.644 337.654h-457.288c-10.966 0-19.856-8.89-19.856-19.856v-1.613c0-10.966 8.89-19.856 19.856-19.856h457.288c10.966 0 19.856 8.89 19.856 19.856v1.613c0 10.966-8.89 19.856-19.856 19.856z" fill="#7191f0"/></g><g><path d="m425.317 339.09-65.839 64.166h30l65.839-64.166z" fill="#eef0f0"/></g><g><path d="m381.102 403.257h-30c10.015 0 18.134 8.119 18.134 18.134v.213c0 10.015-8.119 17.134-18.134 17.134h30c10.015 0 18.134-7.119 18.134-17.134v-.213c0-10.016-8.119-18.134-18.134-18.134z" fill="#6084f0"/></g><g><path d="m484.644 296.329h-30c10.966 0 19.856 8.89 19.856 19.856v1.613c0 10.966-8.89 19.856-19.856 19.856h30c10.966 0 19.856-8.89 19.856-19.856v-1.613c0-10.966-8.89-19.856-19.856-19.856z" fill="#6084f0"/></g><g><path d="m263.029 262.333 15.344 5.856c.88.336 1.784.495 2.673.495 3.021 0 5.867-1.838 7.008-4.828 1.477-3.87-.462-8.204-4.332-9.681l-15.344-5.856c-3.869-1.476-8.204.462-9.681 4.333-1.477 3.869.462 8.204 4.332 9.681z"/><path d="m484.644 288.829h-4.078c7.152-4.652 13.337-10.369 17.153-17.365 4.34-7.958 5.182-16.598 2.502-25.678-2.468-8.362-7.226-14.765-14.156-19.096 3.365-8.529 5.129-17.703 5.129-26.924 0-40.361-32.836-73.197-73.197-73.197-19.54 0-38.039 7.753-51.722 21.438l-34.651-49.67c-1.214-1.741-3.109-2.886-5.215-3.15-2.106-.265-4.225.374-5.833 1.761-9.418 8.12-17.052 17.999-22.556 28.984-7.716.751-14.941 4.107-20.608 7.641-1.286-12.001-4.342-29.265-11.603-43.229-1.912-3.675-6.438-5.104-10.115-3.194-3.675 1.911-5.105 6.439-3.194 10.115 10.526 20.242 10.843 50.582 10.845 50.882.016 3.029 1.853 5.752 4.656 6.9.92.377 1.885.56 2.842.56 1.958 0 3.881-.767 5.317-2.209.093-.093 6.919-6.788 15.306-10.391-.98 3.542-1.776 7.147-2.339 10.812-2.774 18.052-.214 36.438 7.216 52.907l-67.299 30.119c-15.295-26.488-31.165-38.993-47.215-37.192-4.542.511-8.186 1.651-11.126 3.125-12.082-19.257-16.8-34.261-12.636-40.558 1.564-2.365 6.328-9.563 20.716-6.317 8.536 1.925 15.773 6.458 15.831 6.495 2.554 1.63 5.837 1.562 8.323-.17 2.485-1.732 3.684-4.79 3.039-7.75-1.018-4.669-2.27-12.707-2.772-21.79-.002-.214-.012-.428-.032-.641-.748-14.652.499-31.861 7.836-42.071 3.829-5.328 9.025-8.286 15.884-9.043 2.113-.233 4.143-.228 6.034.016 4.111.536 7.867-2.373 8.396-6.482.529-4.108-2.373-7.867-6.481-8.396-3.07-.396-6.298-.412-9.593-.048-11.17 1.232-20.059 6.346-26.42 15.198-6.216 8.649-9.77 20.659-10.636 35.781-11.68-7.536-25.275-11.59-39.544-11.59-40.361 0-73.197 32.836-73.197 73.197 0 14.206 4.068 27.925 11.757 39.777-.5 4.071-.375 8.224.145 12.162-14.594-4.193-37.87-8.608-54.396-.706-8.879 4.246-14.836 11.328-17.706 21.05-4.93 16.704 2.511 29.123 12.89 37.934h-.783c-15.086.003-27.358 12.275-27.358 27.359v1.613c0 15.084 12.272 27.355 27.356 27.355h24.803l60.146 58.619c-4.358 4.597-7.04 10.799-7.04 17.618v.213c0 13.813 11.26 24.634 25.634 24.634h250.203c14.374 0 25.634-10.82 25.634-24.634v-.213c0-6.82-2.682-13.021-7.04-17.618l60.146-58.619h24.803c15.084 0 27.356-12.272 27.356-27.355v-1.613c-.001-15.084-12.273-27.356-27.357-27.356zm-.095-24.547c-5.032 9.227-19.349 17.869-39.279 23.711-.669.196-1.286.484-1.851.836h-139.426c14.403-21.573 19.223-47.845 13.362-73.103 5.302-4.657 10.206-6.771 14.61-6.275 7.364.829 8.904 3.736 9.411 4.691 3.169 5.98-1.174 18.127-3.767 23.059-1.816 3.421-.73 7.662 2.508 9.787 3.238 2.126 7.561 1.436 9.977-1.59 12.196-15.278 31.086-33.574 44.328-39.926.563-.174 1.111-.421 1.635-.735 3.779-1.578 7.018-2.056 9.39-1.033 3.713 1.602 8.594 5.003 8.115 16.008-.328 7.52-3.077 14.367-3.098 14.419-1.153 2.799-.508 6.016 1.632 8.158 2.141 2.141 5.361 2.785 8.161 1.633 10.113-4.161 39.851-13.285 55.8-5.644 4.941 2.367 8.139 6.213 9.775 11.757 1.535 5.191 1.115 9.852-1.283 14.247zm-229.718 19.17-6.709-14.991c-1.692-3.78-6.128-5.474-9.909-3.782s-5.474 6.128-3.782 9.909l6.373 14.241h-23.625l2.75-7.207c1.477-3.87-.463-8.205-4.333-9.681-3.869-1.477-8.205.462-9.681 4.332l-4.792 12.555h-34.895c-.119-.163-.24-.326-.374-.482-1.388-1.611-2.713-3.285-3.971-5.011l141.086-63.142c4.98 23.414-1.038 48.477-16.511 67.103-.398.479-.718.995-.977 1.532h-30.37c.554-1.705.51-3.61-.28-5.376zm137.461-98.15c5.187-9.227 14.94-15.041 25.704-15.041 16.269 0 29.505 13.236 29.505 29.505 0 8.955-4 17.324-10.974 22.961-.28.227-.532.474-.771.731-2.726.633-5.294 1.311-7.636 1.984 1.731-13.132-.862-28.669-16.731-35.513-4.832-2.083-10.251-2.298-16.31-.633zm25.704-43.733c32.09 0 58.197 26.107 58.197 58.197 0 7.537-1.415 14.786-4.171 21.633-4.713-.892-9.661-1.153-14.597-.985 3.293-6.282 5.076-13.332 5.076-20.648 0-24.54-19.965-44.505-44.505-44.505-13.842 0-26.588 6.366-34.895 16.867l-8.081-11.584c11.03-12.083 26.543-18.975 42.976-18.975zm-93.663-27.464 56.902 81.564c-5.585 3.468-11.603 8.143-18.087 14.047-2.056 1.871-4.046 3.766-5.944 5.634-.383-2.82-1.183-5.596-2.553-8.192-2.621-4.97-8.394-11.193-21.008-12.613-7.69-.864-15.398 1.597-23.005 7.322-6.71-14.17-9.092-30.115-6.687-45.77 2.429-15.809 9.577-30.447 20.382-41.992zm-164.294 99.833c-.896 2.103-1.471 4.296-1.773 6.521-1.898-1.869-3.888-3.763-5.944-5.635-10.366-9.439-19.544-15.743-27.656-18.974-.077-.124-.148-.251-.233-.372-3.462-4.959-5.292-10.792-5.292-16.867 0-16.269 13.236-29.505 29.505-29.505.255 0 .507.021.761.028-1.363 1.411-2.655 3.001-3.853 4.813-8.349 12.625-3.605 32.258 14.485 59.991zm-69.59-35.327c0-32.09 26.107-58.197 58.197-58.197 14.933 0 28.948 5.562 39.765 15.711.184 2.519.408 4.915.656 7.113-5.624-1.946-11.883-3.249-18.071-3.111-6.774-3.942-14.447-6.021-22.351-6.021-24.54 0-44.505 19.965-44.505 44.505 0 5.336.944 10.547 2.76 15.45-.96.261-1.902.581-2.819.977-3.729 1.608-6.717 3.701-9.096 6.125-2.981-7.087-4.536-14.725-4.536-22.552zm-33.991 109.664c-21.621-9.035-30.646-20.183-26.823-33.134 1.636-5.544 4.834-9.39 9.775-11.757 15.948-7.642 45.688 1.483 55.796 5.642 2.794 1.153 6.003.509 8.147-1.622s2.795-5.349 1.657-8.15c-.027-.068-2.777-6.915-3.104-14.435-.479-11.005 4.401-14.406 8.115-16.008 10.697-4.612 39.018 21.252 55.354 41.695 2.414 3.02 6.725 3.704 9.96 1.589 3.236-2.116 4.33-6.351 2.531-9.773-2.6-4.945-6.943-17.092-3.774-23.072.506-.955 2.047-3.862 9.411-4.691 9.017-1.022 20.431 9.274 31.765 28.45l-67.506 30.212c-1.938.867-3.417 2.515-4.071 4.534s-.422 4.221.638 6.06c.984 1.707 2.044 3.371 3.135 5.014h-89.948c-.334-.207-.683-.398-1.058-.554zm335.277 133.328c0 6.325-5.35 9.634-10.634 9.634h-250.203c-5.285 0-10.634-3.309-10.634-9.634v-.213c0-5.863 4.771-10.634 10.634-10.634h250.203c5.863 0 10.634 4.771 10.634 10.634zm105.265-103.805c0 6.813-5.543 12.355-12.356 12.355h-341.164c-4.142 0-7.5 3.358-7.5 7.5s3.358 7.5 7.5 7.5h294.87l-51.922 50.603h-5.327-250.203-5.327l-51.921-50.603h39.83c4.142 0 7.5-3.358 7.5-7.5s-3.358-7.5-7.5-7.5h-86.124c-6.813 0-12.356-5.543-12.356-12.355v-1.613c0-6.813 5.543-12.356 12.356-12.356h457.288c6.813 0 12.356 5.543 12.356 12.356z"/><path d="m328.166 181.227c.1 0 .199-.002.299-.006l14.114-.554c4.139-.162 7.363-3.649 7.2-7.788-.162-4.139-3.655-7.347-7.788-7.2l-14.114.554c-4.139.162-7.363 3.649-7.2 7.788.158 4.039 3.483 7.206 7.489 7.206z"/></g></g></svg>